<svg xmlns="http://www.w3.org/2000/svg" version="1.1" xmlns:xlink="http://www.w3.org/1999/xlink" width="123px" height="123px" xml:space="preserve" xmlns:serif="http://www.serif.com/" style="fill-rule:evenodd;clip-rule:evenodd;stroke-linejoin:round;stroke-miterlimit:2;"><rect id="Artboard1" x="0" y="0" width="122.88" height="122.88" style="fill:none;"></rect><g id="Layer-1" serif:id="Layer 1"><path d="M61.44,73.157c4.591,0 8.318,3.727 8.318,8.318c0,4.028 -2.075,10.692 -7.258,15.874l-1.061,1.061l-1.061,-1.061c-5.182,-5.182 -7.258,-11.846 -7.258,-15.874c0,-4.591 3.727,-8.318 8.318,-8.318Zm-14.099,-6.592l-0.32,1.09c-1.583,5.397 -6.64,9.357 -12.636,9.357c-7.265,0 -13.151,-5.812 -13.151,-12.955c0,-3.897 1.749,-7.395 4.52,-9.773l0.838,-0.719l6.804,4.263l-0.334,1.098c-0.084,0.275 -0.128,0.567 -0.128,0.869c0,1.647 1.337,2.985 2.985,2.985c0.782,0 1.494,-0.301 2.026,-0.794l0.842,-0.78l8.553,5.359Zm37.611,-4.69c0.531,0.492 1.242,0.794 2.022,0.794c1.645,0 2.98,-1.338 2.98,-2.985c0,-0.302 -0.045,-0.594 -0.128,-0.869l-0.333,-1.097l6.799,-4.264l0.838,0.72c2.768,2.377 4.516,5.876 4.516,9.772c0,7.144 -5.881,12.955 -13.139,12.955c-5.99,0 -11.043,-3.96 -12.624,-9.358l-0.319,-1.089l8.546,-5.36l0.843,0.781Zm-29.476,-1.594l-0.038,-1.461c-0.064,-2.475 -0.707,-4.503 -1.993,-6.062c-1.28,-1.552 -3.024,-2.568 -5.216,-3.08c-2.474,-0.578 -6.728,-0.87 -12.76,-0.906c-6.256,-0.037 -10.377,-0.153 -12.371,-0.341l-0.009,-0.001c-3.36,-0.356 -6.034,-1.036 -8.03,-2.004c-2.078,-1.008 -3.738,-2.262 -4.993,-3.743c-1.255,-1.481 -2.224,-3.367 -2.882,-5.67c-0.432,-1.494 -0.67,-3.929 -0.67,-7.308l-0,-4.613l11.728,-0l0,3.223c0,3.273 0.412,5.491 1.592,6.561c0.416,0.377 1.055,0.647 1.886,0.874c1.57,0.428 3.729,0.628 6.474,0.628c9.371,0 15.312,0.176 17.83,0.515l0.007,0.001c4.395,0.633 7.899,1.926 10.532,3.826c1.959,1.414 3.608,3.255 4.935,5.529c1.992,-3.233 4.447,-5.588 7.339,-7.09c3.493,-1.814 9.378,-2.782 17.675,-2.782c7.118,0 11.371,-0.083 12.778,-0.268l0.02,-0.002c1.983,-0.207 3.407,-0.69 4.191,-1.652c0.847,-1.039 1.136,-3.103 1.136,-6.14l0,-3.223l11.728,-0l-0,4.613c-0,3.86 -0.346,6.656 -0.974,8.391c-0.91,2.642 -2.44,4.829 -4.587,6.563c-2.117,1.709 -4.775,2.836 -7.991,3.345c-2.974,0.471 -7.849,0.731 -14.625,0.769c-6.51,0.036 -11.005,0.327 -13.482,0.906c-2.191,0.512 -3.936,1.528 -5.216,3.08c-1.286,1.559 -1.928,3.587 -1.993,6.062l-0.038,1.461l-11.985,0Z"></path></g><style>@media (prefers-color-scheme: light) { :root { filter: none; } }
@media (prefers-color-scheme: dark) { :root { filter: invert(100%); } }
</style></svg>